<?xml version="1.0" encoding="UTF-8"?> <svg xmlns="http://www.w3.org/2000/svg" width="57" height="54" viewBox="0 0 57 54" fill="none"> <path d="M21.1291 16.1687L28.5 3.09148L35.8709 16.1687C36.513 17.308 37.6191 18.1116 38.901 18.3703L53.616 21.3393L43.4565 32.3906C42.5714 33.3533 42.1489 34.6535 42.2991 35.9527L44.0225 50.8649L30.3727 44.6177C29.1836 44.0735 27.8164 44.0735 26.6273 44.6177L12.9775 50.8649L14.7009 35.9527C14.8511 34.6535 14.4286 33.3533 13.5435 32.3906L3.384 21.3393L18.099 18.3703C19.3809 18.1116 20.487 17.308 21.1291 16.1687ZM54.2164 20.6863L54.2156 20.6871L54.2164 20.6863Z" stroke="#A1CE1F" stroke-width="5"></path> </svg> 