<?xml version="1.0" encoding="UTF-8"?> <svg xmlns="http://www.w3.org/2000/svg" width="46" height="47" viewBox="0 0 46 47" fill="none"> <path d="M24.5525 1.45308L35.2753 4.93713C36.0786 5.19816 36.7787 5.70682 37.2753 6.39021L43.9023 15.5116C44.3988 16.1949 44.6662 17.018 44.6662 17.8627V29.1373C44.6662 29.982 44.3988 30.8051 43.9023 31.4884L37.2753 40.6098C36.7787 41.2932 36.0786 41.8018 35.2753 42.0629L24.5525 45.5469C23.7491 45.8079 22.8837 45.8079 22.0803 45.5469L11.3576 42.0629C10.5542 41.8018 9.85407 41.2932 9.35756 40.6098L2.73051 31.4884C2.234 30.8051 1.96658 29.982 1.96658 29.1373V17.8627C1.96658 17.018 2.234 16.1949 2.73051 15.5116L9.35756 6.39021C9.85407 5.70682 10.5542 5.19816 11.3576 4.93713L22.0803 1.45308C22.8837 1.19205 23.7491 1.19205 24.5525 1.45308Z" fill="white" stroke="#DE4647" stroke-width="2"></path> </svg> 