<?xml version="1.0" encoding="UTF-8"?> <svg xmlns="http://www.w3.org/2000/svg" width="24" height="23" viewBox="0 0 24 23" fill="none"> <path d="M11.1288 1.58217C11.5114 0.903521 12.4886 0.903522 12.8712 1.58217L15.123 5.57743L15.9942 5.08642L15.1231 5.57743C15.5512 6.33696 16.2885 6.87268 17.1431 7.04512L21.6387 7.9522C22.4024 8.10628 22.7044 9.03572 22.1772 9.60922L19.0733 12.9855C18.4832 13.6274 18.2016 14.4942 18.3017 15.3603L18.8282 19.9162C18.9177 20.69 18.127 21.2645 17.4187 20.9403L13.2485 19.0316C12.4557 18.6688 11.5443 18.6688 10.7515 19.0316L6.58133 20.9403C5.87297 21.2645 5.08234 20.69 5.17178 19.9162L5.69831 15.3603C5.79841 14.4942 5.51677 13.6274 4.9267 12.9855L1.82285 9.60922C1.29562 9.03572 1.59762 8.10628 2.36125 7.9522L6.85685 7.04512C7.7115 6.87268 8.44885 6.33696 8.87695 5.57743L11.1288 1.58217Z" stroke="#A1CE1F" stroke-width="2"></path> </svg> 