<?xml version="1.0" encoding="UTF-8"?> <svg xmlns="http://www.w3.org/2000/svg" width="369" height="277" viewBox="0 0 369 277" fill="none"> <g filter="url(#filter0_d)"> <rect x="75.9995" y="52.7371" width="221" height="163" fill="#F3BC63"></rect> </g> <g filter="url(#filter1_d)"> <rect x="90.5723" y="36.0002" width="221" height="163" transform="rotate(9.27059 90.5723 36.0002)" fill="#FAF7EA"></rect> </g> <g filter="url(#filter2_d)"> <ellipse cx="184.163" cy="137.821" rx="133" ry="59.5373" transform="rotate(15 184.163 137.821)" fill="white"></ellipse> </g> <path d="M97.3275 94.6163L95.0674 100.573C94.778 101.34 94.3599 101.82 93.8132 102.01L98.3906 103.218L100.443 95.4381L97.3275 94.6163ZM90.259 101.017L90.6767 101.127C91.1787 101.247 91.5489 101.208 91.7872 101.011C92.0402 100.804 92.2841 100.397 92.519 99.7888L95.6572 91.7742L103.594 93.8679L100.963 103.841L102.268 104.185L101.23 108.118L98.8983 107.503L99.3528 105.78L92.1299 103.875L91.6754 105.598L89.2213 104.95L90.259 101.017ZM109.196 106.999C108.836 107.425 108.345 107.687 107.724 107.784C107.117 107.872 106.512 107.836 105.909 107.677C105.096 107.463 104.451 107.038 103.974 106.403C103.51 105.76 103.371 105.041 103.556 104.246C103.77 103.247 104.252 102.574 105.001 102.225C105.754 101.865 106.623 101.816 107.61 102.076C108.526 102.318 109.222 102.693 109.695 103.203L109.847 102.629C110.058 101.828 109.467 101.244 108.075 100.877C107.065 100.61 106.215 100.566 105.523 100.743L105.668 98.9202C106.66 98.7351 107.766 98.8033 108.984 99.1247C111.653 99.8287 112.712 101.225 112.161 103.314L111.362 106.342C111.3 106.574 111.258 106.736 111.233 106.829C111.22 106.925 111.22 107.043 111.233 107.183C111.249 107.311 111.304 107.406 111.399 107.469C111.506 107.534 111.66 107.587 111.86 107.628L111.519 108.99C111.057 108.955 110.629 108.885 110.234 108.781C109.84 108.677 109.534 108.472 109.317 108.167C109.114 107.853 109.074 107.463 109.196 106.999ZM109.129 105.139L109.244 104.703C108.853 104.253 108.316 103.938 107.632 103.757C107.219 103.673 106.855 103.713 106.539 103.878C106.225 104.031 106.04 104.311 105.982 104.718C105.929 105.014 105.991 105.273 106.168 105.493C106.349 105.702 106.59 105.846 106.892 105.926C107.344 106.045 107.791 106.045 108.232 105.926C108.688 105.798 108.987 105.535 109.129 105.139ZM117.321 102.925C117.673 102.484 118.127 102.201 118.681 102.074C119.239 101.936 119.802 101.941 120.371 102.091C121.543 102.4 122.352 103.073 122.798 104.109C123.248 105.134 123.313 106.25 122.995 107.456C122.781 108.268 122.411 108.965 121.885 109.546C121.363 110.116 120.775 110.507 120.124 110.72C119.475 110.921 118.782 110.961 118.044 110.841C117.318 110.724 116.641 110.372 116.014 109.785L114.784 114.449L112.347 113.806L114.946 103.955C114.958 103.909 114.979 103.828 115.01 103.712C115.044 103.584 115.065 103.503 115.074 103.468C115.087 103.421 115.099 103.35 115.112 103.254C115.137 103.162 115.146 103.102 115.141 103.076C115.138 103.038 115.133 102.987 115.125 102.923C115.12 102.847 115.098 102.791 115.057 102.756C115.029 102.724 114.988 102.688 114.936 102.65C114.899 102.603 114.84 102.568 114.759 102.547C114.678 102.526 114.591 102.503 114.498 102.478L114.907 100.855C115.251 100.871 115.567 100.917 115.857 100.994C116.15 101.059 116.433 101.164 116.705 101.31C116.991 101.448 117.191 101.656 117.303 101.934C117.416 102.212 117.422 102.542 117.321 102.925ZM117.056 105.554L116.477 107.747C116.998 108.22 117.521 108.519 118.046 108.645C118.586 108.763 119.091 108.66 119.561 108.337C120.034 108.003 120.36 107.493 120.541 106.809C120.7 106.205 120.675 105.64 120.467 105.114C120.27 104.59 119.881 104.252 119.301 104.099C118.776 103.973 118.308 104.054 117.897 104.343C117.485 104.631 117.205 105.035 117.056 105.554ZM130.471 109.354L124.276 112.374L123.649 112.208L125.867 103.802L128.216 104.422L127.101 108.651L133.168 105.691L133.899 105.884L131.677 114.307L129.327 113.688L130.471 109.354ZM139.043 114.389L138.834 114.334L137.283 111.672L136.278 115.484L133.946 114.869L136.15 106.515L136.881 106.707L139.695 111.564L144.556 108.732L145.27 108.92L143.066 117.275L140.751 116.664L141.756 112.852L139.043 114.389ZM150.793 112.853C151.304 110.916 152.321 109.552 153.845 108.763C155.372 107.962 156.979 107.796 158.667 108.266C160.013 108.621 161.122 109.311 161.993 110.335C162.868 111.348 163.252 112.597 163.146 114.083L160.622 113.417C160.449 111.957 159.59 111.023 158.047 110.616C156.968 110.331 156.003 110.461 155.152 111.006C154.304 111.539 153.727 112.386 153.421 113.547C153.139 114.614 153.231 115.606 153.696 116.523C154.162 117.44 154.928 118.04 155.996 118.321C156.773 118.527 157.495 118.518 158.162 118.297C158.828 118.076 159.355 117.631 159.742 116.964L162.248 117.625C161.607 119.069 160.651 120.034 159.382 120.518C158.112 121.002 156.781 121.06 155.389 120.693C154.577 120.479 153.834 120.14 153.162 119.677C152.493 119.203 151.934 118.64 151.486 117.988C151.04 117.324 150.749 116.546 150.612 115.654C150.475 114.761 150.535 113.828 150.793 112.853ZM171.625 120.099L173.305 124.88L173.209 125.245L170.424 124.51L168.978 119.829L166.803 119.255L165.742 123.275L163.131 122.587L166.345 110.403L171.549 111.776C172.884 112.128 173.825 112.817 174.373 113.843C174.925 114.857 175.049 115.939 174.746 117.087C174.541 117.865 174.163 118.522 173.612 119.059C173.06 119.596 172.398 119.943 171.625 120.099ZM167.333 117.105L169.943 117.794C170.477 117.934 170.96 117.869 171.391 117.598C171.825 117.316 172.107 116.906 172.236 116.369C172.374 115.847 172.326 115.369 172.093 114.936C171.863 114.49 171.476 114.196 170.93 114.052L168.32 113.363L167.333 117.105ZM182.685 120.894L189.105 116.389L190.045 116.637L186.821 128.855L184.211 128.166L185.951 121.57L181.878 124.591L181.547 124.503L179.494 119.866L177.754 126.463L175.143 125.774L178.366 113.556L179.323 113.808L182.685 120.894ZM202.373 126.367C202.14 127.249 201.613 127.693 200.792 127.7C201.228 127.977 201.535 128.343 201.712 128.799C201.905 129.247 201.935 129.721 201.803 130.219C201.668 130.73 201.451 131.132 201.15 131.425C200.852 131.706 200.491 131.878 200.065 131.939C199.642 131.989 199.232 131.992 198.834 131.949C198.447 131.909 198.01 131.825 197.523 131.696L193.624 130.668L195.851 122.227L199.193 123.108C199.692 123.24 200.115 123.376 200.462 123.518C200.813 123.647 201.179 123.837 201.559 124.086C201.952 124.339 202.216 124.657 202.35 125.04C202.497 125.426 202.504 125.868 202.373 126.367ZM196.456 129.46L197.744 129.8C197.976 129.861 198.151 129.901 198.271 129.92C198.401 129.943 198.566 129.955 198.763 129.957C198.973 129.963 199.135 129.913 199.25 129.807C199.377 129.703 199.467 129.547 199.522 129.339C199.568 129.164 199.566 129.009 199.515 128.871C199.479 128.725 199.428 128.613 199.363 128.533C199.297 128.454 199.174 128.378 198.994 128.306C198.818 128.222 198.689 128.169 198.608 128.148C198.527 128.126 198.382 128.088 198.173 128.033L196.92 127.703L196.456 129.46ZM197.342 126.101L198.473 126.4C198.671 126.452 198.823 126.486 198.93 126.502C199.038 126.518 199.166 126.527 199.314 126.528C199.477 126.522 199.608 126.476 199.705 126.389C199.802 126.303 199.873 126.173 199.919 125.999C199.981 125.767 199.958 125.569 199.853 125.405C199.747 125.24 199.616 125.125 199.46 125.059C199.315 124.996 199.121 124.932 198.877 124.868L197.746 124.57L197.342 126.101ZM209.456 125.853L217.48 127.97L215.267 136.359L212.847 135.721L214.496 129.472L211.345 128.641L209.697 134.89L207.243 134.242L209.456 125.853ZM226.549 131.33C227.238 132.343 227.398 133.546 227.031 134.939C226.663 136.331 225.936 137.299 224.849 137.844C223.777 138.381 222.643 138.491 221.448 138.176C220.242 137.857 219.293 137.197 218.601 136.196C217.924 135.186 217.77 133.985 218.137 132.592C218.498 131.223 219.216 130.265 220.292 129.717C221.367 129.169 222.504 129.047 223.702 129.351C224.923 129.66 225.872 130.32 226.549 131.33ZM221.606 131.72C221.096 132.008 220.746 132.511 220.556 133.231C220.366 133.95 220.415 134.565 220.703 135.075C220.993 135.573 221.411 135.895 221.956 136.039C222.51 136.197 223.044 136.127 223.557 135.828C224.07 135.529 224.422 135.02 224.612 134.3C224.798 133.593 224.746 132.989 224.456 132.491C224.169 131.981 223.752 131.654 223.207 131.51C222.65 131.363 222.116 131.433 221.606 131.72ZM228.47 141.778L226.364 141.222L227.268 137.514L227.302 137.523L227.424 137.555C227.645 137.614 227.845 137.629 228.026 137.603C228.207 137.576 228.347 137.538 228.447 137.49C228.558 137.445 228.667 137.337 228.774 137.167C228.893 137 228.976 136.873 229.023 136.786C229.074 136.688 229.154 136.504 229.262 136.235C229.373 135.954 229.456 135.758 229.51 135.648L231.282 131.611L237.565 133.268L235.848 139.778L236.962 140.072L235.901 143.738L233.796 143.183L234.273 141.373L228.947 139.968L228.47 141.778ZM233.568 139.176L234.757 134.668L232.703 134.127L231.656 136.755L231.382 137.371C231.142 137.903 230.862 138.239 230.54 138.377L233.568 139.176ZM243.912 142.538C243.551 142.964 243.06 143.225 242.439 143.322C241.832 143.41 241.227 143.375 240.624 143.216C239.812 143.001 239.167 142.577 238.689 141.942C238.226 141.299 238.087 140.579 238.272 139.784C238.485 138.786 238.967 138.112 239.717 137.764C240.469 137.404 241.339 137.354 242.325 137.614C243.242 137.856 243.937 138.232 244.411 138.742L244.562 138.167C244.773 137.367 244.183 136.783 242.79 136.415C241.781 136.149 240.93 136.105 240.238 136.282L240.384 134.459C241.376 134.274 242.481 134.342 243.699 134.663C246.368 135.367 247.427 136.764 246.876 138.852L246.077 141.88C246.016 142.113 245.973 142.275 245.949 142.368C245.936 142.464 245.936 142.582 245.948 142.721C245.964 142.85 246.02 142.945 246.115 143.007C246.222 143.073 246.375 143.126 246.576 143.166L246.235 144.528C245.773 144.493 245.344 144.424 244.95 144.32C244.555 144.216 244.249 144.011 244.032 143.705C243.829 143.391 243.789 143.002 243.912 142.538ZM243.844 140.677L243.959 140.242C243.569 139.792 243.032 139.476 242.347 139.296C241.935 139.212 241.57 139.252 241.254 139.417C240.941 139.57 240.755 139.85 240.697 140.257C240.644 140.553 240.706 140.811 240.884 141.032C241.064 141.241 241.306 141.385 241.607 141.465C242.06 141.584 242.507 141.584 242.948 141.464C243.403 141.337 243.702 141.074 243.844 140.677ZM252.037 138.464C252.389 138.023 252.842 137.739 253.397 137.612C253.954 137.474 254.518 137.48 255.086 137.63C256.258 137.939 257.067 138.612 257.514 139.648C257.963 140.672 258.029 141.788 257.71 142.995C257.496 143.807 257.126 144.504 256.601 145.085C256.078 145.654 255.491 146.046 254.839 146.258C254.19 146.459 253.497 146.5 252.759 146.38C252.033 146.263 251.357 145.91 250.73 145.323L249.499 149.988L247.062 149.345L249.661 139.494C249.673 139.447 249.695 139.366 249.726 139.25C249.759 139.122 249.781 139.041 249.79 139.006C249.802 138.96 249.815 138.889 249.827 138.793C249.852 138.7 249.861 138.641 249.856 138.614C249.854 138.577 249.848 138.525 249.841 138.461C249.836 138.386 249.813 138.33 249.773 138.295C249.744 138.262 249.704 138.227 249.652 138.188C249.615 138.141 249.555 138.107 249.474 138.086C249.393 138.064 249.306 138.041 249.213 138.017L249.623 136.393C249.966 136.41 250.283 136.456 250.573 136.532C250.866 136.597 251.148 136.703 251.42 136.849C251.706 136.987 251.906 137.194 252.019 137.472C252.132 137.75 252.138 138.081 252.037 138.464ZM251.771 141.093L251.193 143.286C251.713 143.758 252.236 144.058 252.761 144.184C253.301 144.301 253.806 144.199 254.276 143.876C254.749 143.541 255.076 143.032 255.256 142.347C255.416 141.744 255.391 141.179 255.182 140.652C254.985 140.129 254.597 139.791 254.017 139.638C253.491 139.511 253.023 139.593 252.612 139.881C252.201 140.17 251.92 140.574 251.771 141.093ZM267.392 142.105C268.081 143.118 268.241 144.321 267.874 145.713C267.506 147.105 266.779 148.074 265.692 148.619C264.62 149.155 263.486 149.266 262.291 148.95C261.085 148.632 260.136 147.972 259.444 146.971C258.767 145.96 258.613 144.759 258.98 143.367C259.341 141.998 260.059 141.039 261.135 140.491C262.21 139.944 263.347 139.822 264.545 140.125C265.766 140.435 266.715 141.095 267.392 142.105ZM262.449 142.495C261.939 142.782 261.589 143.286 261.399 144.005C261.209 144.725 261.258 145.339 261.546 145.849C261.836 146.348 262.254 146.669 262.799 146.813C263.353 146.972 263.887 146.901 264.4 146.602C264.913 146.303 265.265 145.794 265.454 145.075C265.641 144.367 265.589 143.764 265.299 143.265C265.012 142.755 264.595 142.428 264.05 142.284C263.493 142.137 262.959 142.208 262.449 142.495ZM272.326 145.771L272.936 145.932C273.829 146.167 274.529 146.054 275.036 145.592C275.542 145.13 275.924 144.412 276.181 143.437L278.479 144.043C277.98 146.121 276.956 147.346 275.405 147.719L276.73 152.294L276.666 152.538L274.194 151.886L273.132 147.938C272.943 147.95 272.697 147.916 272.396 147.837L271.821 147.685L270.94 151.027L268.521 150.389L270.729 142.017L273.148 142.655L272.326 145.771ZM279.704 153.618C279.31 153.514 279.005 153.304 278.791 152.987C278.58 152.658 278.525 152.302 278.626 151.919C278.73 151.525 278.948 151.241 279.279 151.067C279.622 150.897 279.996 150.866 280.402 150.973C280.82 151.083 281.13 151.295 281.333 151.609C281.538 151.912 281.587 152.266 281.48 152.672C281.379 153.055 281.162 153.339 280.827 153.524C280.496 153.697 280.122 153.729 279.704 153.618ZM279.391 149.794L281.542 140.793L284.379 141.541L281.863 150.446L279.391 149.794Z" fill="black"></path> <path d="M94.9833 129.09L97.5116 119.506L104.686 121.399L102.158 130.983L101.183 130.726L103.483 122.008L98.2577 120.63L95.9579 129.348L94.9833 129.09ZM103.788 134.888L106.317 125.304L107.237 125.547L106.948 126.643L106.989 126.654C107.346 126.324 107.77 126.107 108.26 126.005C108.753 125.894 109.234 125.9 109.703 126.024C110.678 126.281 111.383 126.81 111.819 127.61C112.257 128.401 112.351 129.27 112.101 130.218C111.851 131.166 111.339 131.88 110.565 132.361C109.794 132.833 108.921 132.941 107.946 132.684C107.486 132.562 107.068 132.336 106.692 132.005C106.316 131.675 106.048 131.281 105.889 130.824L105.848 130.813L104.709 135.131L103.788 134.888ZM108.059 131.874C108.799 132.069 109.444 131.983 109.994 131.617C110.556 131.244 110.933 130.692 111.126 129.961C111.319 129.23 111.263 128.564 110.958 127.962C110.663 127.363 110.145 126.966 109.405 126.77C108.701 126.585 108.055 126.675 107.466 127.041C106.877 127.407 106.486 127.955 106.293 128.686C106.101 129.417 106.17 130.087 106.502 130.696C106.836 131.295 107.355 131.688 108.059 131.874ZM113.238 133.906L114.91 127.571L115.83 127.814L114.494 132.877L114.508 132.88L119.593 128.807L120.595 129.071L118.924 135.406L118.017 135.167L119.367 130.05L119.34 130.043L114.24 134.17L113.238 133.906ZM126.592 137.603C125.355 137.276 124.562 136.623 124.213 135.643L125.114 135.302C125.2 135.633 125.399 135.941 125.71 136.226C126.021 136.511 126.379 136.707 126.785 136.814C127.218 136.928 127.608 136.934 127.953 136.832C128.31 136.724 128.543 136.462 128.653 136.047C128.753 135.668 128.641 135.339 128.319 135.061C128.008 134.776 127.591 134.565 127.067 134.427L126.634 134.313L126.827 133.582L127.233 133.689C127.739 133.822 128.169 133.839 128.523 133.739C128.886 133.642 129.119 133.4 129.222 133.012C129.388 132.38 128.98 131.934 127.996 131.675C127.671 131.589 127.339 131.588 126.998 131.672C126.657 131.756 126.371 131.907 126.14 132.126L125.558 131.423C125.858 131.125 126.247 130.933 126.723 130.847C127.202 130.751 127.703 130.772 128.227 130.91C128.922 131.094 129.45 131.397 129.811 131.821C130.175 132.235 130.286 132.708 130.146 133.241C130.053 133.593 129.845 133.871 129.52 134.075C129.208 134.272 128.847 134.361 128.437 134.339L128.43 134.366C128.871 134.56 129.195 134.834 129.401 135.187C129.616 135.543 129.67 135.924 129.562 136.33C129.405 136.926 129.051 137.335 128.501 137.556C127.959 137.78 127.323 137.795 126.592 137.603ZM132.748 139.227C132.179 139.077 131.711 138.784 131.343 138.349C130.987 137.908 130.893 137.367 131.062 136.726C131.145 136.41 131.272 136.149 131.442 135.943C131.615 135.728 131.83 135.572 132.087 135.476C132.344 135.38 132.611 135.32 132.887 135.296C133.166 135.264 133.496 135.273 133.878 135.326C134.263 135.369 134.614 135.428 134.932 135.503C135.262 135.57 135.648 135.662 136.09 135.779L136.143 135.576C136.431 134.484 136.011 133.789 134.883 133.492C134.125 133.292 133.433 133.374 132.805 133.74L132.452 132.995C133.216 132.55 134.126 132.467 135.182 132.745C135.904 132.936 136.442 133.29 136.798 133.809C137.153 134.327 137.234 134.956 137.038 135.696L136.306 138.471C136.156 139.04 136.067 139.523 136.04 139.921L135.214 139.703C135.246 139.326 135.305 138.975 135.391 138.65L135.363 138.643C134.603 139.291 133.732 139.486 132.748 139.227ZM133.192 138.533C133.814 138.697 134.36 138.624 134.828 138.313C135.305 138.004 135.621 137.557 135.776 136.97L135.901 136.497L135.63 136.425C135.197 136.311 134.804 136.227 134.451 136.172C134.11 136.111 133.756 136.081 133.39 136.08C133.032 136.082 132.733 136.153 132.494 136.293C132.254 136.432 132.097 136.647 132.02 136.935C131.911 137.35 131.974 137.695 132.211 137.97C132.449 138.236 132.776 138.423 133.192 138.533ZM138.33 140.525L140.001 134.19L140.922 134.433L140.132 137.425L140.173 137.435L143.886 135.215L145.213 135.565L141.218 137.755L143.866 141.986L142.513 141.629L140.134 137.584L140.093 137.574L139.25 140.768L138.33 140.525ZM146.88 142.955C146.311 142.805 145.843 142.512 145.475 142.077C145.118 141.636 145.025 141.095 145.194 140.454C145.277 140.138 145.404 139.877 145.574 139.671C145.747 139.456 145.961 139.3 146.219 139.204C146.476 139.108 146.742 139.048 147.019 139.024C147.298 138.992 147.628 139.002 148.01 139.054C148.394 139.097 148.746 139.156 149.064 139.231C149.393 139.298 149.779 139.39 150.222 139.507L150.275 139.304C150.563 138.212 150.143 137.517 149.015 137.22C148.257 137.02 147.564 137.102 146.937 137.468L146.583 136.723C147.348 136.278 148.258 136.195 149.313 136.473C150.035 136.664 150.574 137.018 150.93 137.537C151.285 138.055 151.365 138.684 151.17 139.424L150.438 142.199C150.288 142.768 150.199 143.251 150.171 143.649L149.346 143.431C149.378 143.054 149.437 142.703 149.522 142.378L149.495 142.371C148.735 143.019 147.863 143.214 146.88 142.955ZM147.323 142.261C147.946 142.425 148.491 142.352 148.96 142.041C149.437 141.733 149.753 141.285 149.907 140.698L150.032 140.225L149.762 140.153C149.328 140.039 148.936 139.955 148.583 139.9C148.242 139.839 147.888 139.809 147.521 139.808C147.164 139.81 146.865 139.881 146.626 140.021C146.386 140.16 146.228 140.375 146.152 140.663C146.043 141.078 146.106 141.423 146.342 141.698C146.581 141.964 146.908 142.151 147.323 142.261ZM154.287 144.909C153.05 144.583 152.257 143.929 151.908 142.949L152.809 142.608C152.895 142.939 153.094 143.247 153.405 143.532C153.716 143.817 154.074 144.013 154.48 144.12C154.914 144.234 155.303 144.24 155.648 144.139C156.005 144.03 156.238 143.768 156.348 143.353C156.448 142.974 156.337 142.645 156.014 142.367C155.703 142.083 155.286 141.871 154.763 141.733L154.329 141.619L154.522 140.888L154.928 140.995C155.434 141.128 155.864 141.145 156.218 141.046C156.582 140.948 156.814 140.706 156.917 140.318C157.083 139.686 156.675 139.24 155.691 138.981C155.366 138.895 155.034 138.894 154.693 138.978C154.352 139.062 154.066 139.213 153.835 139.432L153.253 138.729C153.553 138.431 153.942 138.239 154.418 138.153C154.897 138.057 155.399 138.078 155.922 138.216C156.617 138.4 157.145 138.703 157.506 139.127C157.87 139.541 157.981 140.015 157.841 140.547C157.748 140.899 157.54 141.177 157.215 141.381C156.903 141.579 156.542 141.667 156.132 141.646L156.125 141.673C156.566 141.866 156.89 142.14 157.096 142.493C157.311 142.849 157.365 143.23 157.258 143.636C157.1 144.232 156.747 144.641 156.196 144.862C155.654 145.086 155.018 145.102 154.287 144.909ZM161.539 146.822C160.601 146.574 159.904 146.053 159.448 145.257C158.992 144.461 158.89 143.584 159.142 142.628C159.392 141.68 159.907 140.971 160.687 140.502C161.47 140.023 162.313 139.902 163.215 140.14C164.172 140.393 164.838 140.887 165.213 141.623C165.591 142.35 165.659 143.169 165.419 144.081C165.371 144.261 165.329 144.405 165.291 144.511L160.039 143.125C159.888 143.77 159.974 144.377 160.297 144.945C160.623 145.504 161.106 145.868 161.747 146.037C162.189 146.154 162.618 146.156 163.034 146.043C163.452 145.922 163.796 145.733 164.066 145.476L164.614 146.2C163.674 146.907 162.65 147.115 161.539 146.822ZM160.245 142.398L164.564 143.537C164.698 142.916 164.631 142.367 164.361 141.891C164.102 141.407 163.652 141.081 163.012 140.912C162.416 140.755 161.851 140.828 161.318 141.131C160.795 141.428 160.438 141.85 160.245 142.398ZM169.925 148.86L171.596 142.525L172.516 142.768L171.727 145.76L171.768 145.77L175.481 143.55L176.808 143.9L172.813 146.089L175.461 150.321L174.108 149.964L171.729 145.919L171.688 145.908L170.845 149.103L169.925 148.86ZM179.428 151.541C178.453 151.284 177.729 150.755 177.255 149.954C176.79 149.156 176.683 148.278 176.936 147.322C177.188 146.365 177.713 145.654 178.512 145.189C179.319 144.727 180.21 144.624 181.185 144.881C182.169 145.14 182.893 145.669 183.358 146.468C183.832 147.268 183.943 148.147 183.691 149.104C183.438 150.06 182.908 150.77 182.101 151.233C181.303 151.698 180.412 151.801 179.428 151.541ZM179.635 150.756C180.357 150.946 181.002 150.861 181.57 150.499C182.141 150.128 182.523 149.578 182.716 148.847C182.909 148.116 182.848 147.448 182.535 146.844C182.221 146.24 181.703 145.843 180.981 145.653C180.268 145.464 179.626 145.556 179.056 145.926C178.485 146.297 178.103 146.848 177.91 147.579C177.72 148.301 177.781 148.964 178.095 149.568C178.409 150.172 178.922 150.568 179.635 150.756ZM184.836 152.794L186.507 146.459L187.834 146.809L188.865 152.394L188.878 152.398L192.517 148.044L193.844 148.394L192.173 154.729L191.252 154.487L192.634 149.248L192.607 149.241L188.734 153.822L188.261 153.697L187.152 147.802L187.138 147.798L185.756 153.037L184.836 152.794ZM194.605 155.371L196.276 149.036L201.664 150.457L199.993 156.792L199.072 156.55L200.54 150.986L196.993 150.05L195.526 155.614L194.605 155.371ZM202.007 157.396C201.745 157.327 201.522 157.239 201.338 157.133L201.657 156.363C201.781 156.444 201.919 156.504 202.072 156.545C202.569 156.676 203.003 156.51 203.376 156.049C203.76 155.581 204.117 154.724 204.445 153.479L205.009 151.34L209.544 152.536L207.873 158.871L206.952 158.628L208.42 153.065L205.699 152.347L205.253 154.039C204.917 155.312 204.489 156.241 203.967 156.827C203.455 157.416 202.801 157.606 202.007 157.396ZM213.083 160.419C212.144 160.172 211.447 159.65 210.991 158.854C210.535 158.058 210.433 157.182 210.685 156.225C210.935 155.278 211.45 154.569 212.231 154.099C213.013 153.62 213.856 153.5 214.759 153.738C215.715 153.99 216.381 154.484 216.756 155.22C217.134 155.948 217.203 156.767 216.962 157.678C216.915 157.859 216.872 158.002 216.834 158.108L211.582 156.722C211.431 157.368 211.517 157.975 211.84 158.542C212.166 159.101 212.649 159.465 213.29 159.634C213.732 159.751 214.161 159.753 214.577 159.641C214.995 159.519 215.339 159.33 215.61 159.073L216.157 159.797C215.218 160.505 214.193 160.712 213.083 160.419ZM211.789 155.995L216.107 157.134C216.242 156.513 216.174 155.965 215.904 155.488C215.645 155.005 215.196 154.678 214.555 154.509C213.959 154.352 213.395 154.425 212.861 154.729C212.339 155.025 211.981 155.447 211.789 155.995ZM218.084 161.565L219.755 155.23L220.676 155.472L219.886 158.464L219.927 158.475L223.64 156.255L224.967 156.605L220.972 158.794L223.62 163.025L222.267 162.668L219.888 158.624L219.847 158.613L219.004 161.808L218.084 161.565ZM230.299 163.788C229.511 164.362 228.611 164.516 227.6 164.249C226.59 163.983 225.855 163.456 225.397 162.669C224.941 161.873 224.84 160.992 225.095 160.026C225.349 159.061 225.87 158.349 226.657 157.89C227.447 157.423 228.347 157.322 229.357 157.589C229.809 157.708 230.221 157.918 230.596 158.22C230.979 158.524 231.255 158.886 231.424 159.307L230.57 159.632C230.481 159.348 230.308 159.09 230.051 158.858C229.805 158.619 229.51 158.455 229.167 158.364C228.445 158.174 227.795 158.263 227.215 158.631C226.646 158.993 226.265 159.543 226.069 160.283C225.877 161.014 225.937 161.682 226.251 162.286C226.567 162.881 227.086 163.274 227.808 163.464C228.539 163.657 229.184 163.533 229.745 163.092L230.299 163.788ZM231.488 165.101L233.159 158.766L234.08 159.009L233.38 161.662L237.021 162.622L237.721 159.969L238.641 160.212L236.97 166.547L236.05 166.304L236.817 163.394L233.176 162.433L232.408 165.344L231.488 165.101ZM242.274 168.12C241.299 167.863 240.575 167.334 240.101 166.533C239.636 165.735 239.529 164.857 239.782 163.901C240.034 162.944 240.559 162.233 241.358 161.768C242.165 161.306 243.056 161.203 244.031 161.46C245.015 161.72 245.739 162.248 246.204 163.047C246.678 163.848 246.789 164.726 246.537 165.683C246.284 166.639 245.754 167.349 244.947 167.812C244.149 168.277 243.258 168.38 242.274 168.12ZM242.481 167.335C243.203 167.525 243.848 167.44 244.417 167.078C244.987 166.708 245.369 166.157 245.562 165.426C245.755 164.695 245.694 164.027 245.381 163.423C245.067 162.819 244.549 162.422 243.827 162.232C243.114 162.044 242.473 162.135 241.902 162.505C241.331 162.876 240.949 163.427 240.756 164.158C240.566 164.88 240.628 165.543 240.941 166.147C241.255 166.751 241.768 167.147 242.481 167.335ZM247.682 169.373L249.353 163.038L253.55 164.145L253.346 164.916L250.07 164.052L248.602 169.616L247.682 169.373ZM256.075 171.761C255.101 171.504 254.376 170.975 253.902 170.174C253.437 169.376 253.331 168.498 253.583 167.542C253.835 166.585 254.361 165.874 255.159 165.409C255.966 164.947 256.858 164.844 257.832 165.101C258.816 165.36 259.54 165.889 260.005 166.688C260.479 167.488 260.59 168.367 260.338 169.324C260.086 170.28 259.556 170.99 258.748 171.453C257.95 171.918 257.059 172.02 256.075 171.761ZM256.282 170.976C257.004 171.166 257.649 171.081 258.218 170.719C258.789 170.348 259.17 169.798 259.363 169.067C259.556 168.336 259.496 167.668 259.182 167.064C258.868 166.46 258.351 166.063 257.629 165.872C256.916 165.684 256.274 165.776 255.703 166.146C255.132 166.517 254.75 167.068 254.558 167.799C254.367 168.521 254.429 169.184 254.742 169.788C255.056 170.392 255.569 170.788 256.282 170.976ZM129.689 156.001C128.714 155.744 127.99 155.215 127.516 154.414C127.051 153.616 126.944 152.739 127.197 151.782C127.449 150.825 127.974 150.115 128.773 149.649C129.58 149.187 130.471 149.084 131.446 149.341C132.429 149.601 133.154 150.13 133.619 150.928C134.093 151.729 134.204 152.607 133.951 153.564C133.699 154.521 133.169 155.23 132.362 155.693C131.563 156.158 130.672 156.261 129.689 156.001ZM129.896 155.216C130.618 155.407 131.263 155.321 131.831 154.959C132.402 154.589 132.784 154.038 132.977 153.307C133.17 152.576 133.109 151.908 132.796 151.304C132.482 150.7 131.964 150.303 131.242 150.113C130.529 149.925 129.887 150.016 129.317 150.387C128.746 150.757 128.364 151.308 128.171 152.039C127.981 152.761 128.042 153.424 128.356 154.028C128.67 154.632 129.183 155.028 129.896 155.216ZM138.073 158.213C136.809 157.88 136.005 157.195 135.661 156.158C135.423 155.448 135.488 154.399 135.855 153.009C136.078 152.161 136.294 151.47 136.503 150.936C136.723 150.395 136.994 149.897 137.317 149.442C137.649 148.989 138.049 148.68 138.517 148.514C138.988 148.339 139.54 148.296 140.173 148.386L142.156 148.663C142.49 148.712 142.759 148.716 142.964 148.673C143.177 148.633 143.342 148.522 143.457 148.34L144.067 148.718C143.872 149.053 143.634 149.279 143.352 149.398C143.081 149.51 142.711 149.538 142.244 149.482L140.382 149.237C139.413 149.107 138.673 149.259 138.162 149.694C137.654 150.12 137.202 151.048 136.805 152.478L136.846 152.489C137.662 151.555 138.733 151.264 140.06 151.613C140.989 151.859 141.664 152.375 142.084 153.161C142.506 153.938 142.59 154.81 142.335 155.776C142.083 156.732 141.553 157.442 140.746 157.905C139.947 158.37 139.056 158.472 138.073 158.213ZM138.28 157.428C139.002 157.618 139.647 157.533 140.215 157.171C140.786 156.8 141.168 156.25 141.361 155.519C141.553 154.788 141.493 154.12 141.179 153.516C140.866 152.912 140.348 152.515 139.626 152.324C138.913 152.136 138.271 152.228 137.7 152.598C137.13 152.969 136.748 153.52 136.555 154.251C136.365 154.973 136.426 155.636 136.74 156.24C137.053 156.844 137.567 157.24 138.28 157.428ZM149.058 159.938C148.269 160.512 147.37 160.666 146.359 160.399C145.348 160.132 144.614 159.605 144.155 158.819C143.699 158.023 143.599 157.142 143.853 156.176C144.108 155.21 144.629 154.498 145.416 154.04C146.205 153.573 147.105 153.472 148.116 153.739C148.567 153.858 148.98 154.068 149.354 154.369C149.737 154.673 150.013 155.036 150.182 155.457L149.329 155.782C149.24 155.498 149.067 155.24 148.809 155.008C148.563 154.769 148.269 154.604 147.926 154.514C147.204 154.324 146.553 154.412 145.973 154.781C145.405 155.142 145.023 155.693 144.828 156.433C144.635 157.164 144.695 157.832 145.009 158.436C145.325 159.031 145.844 159.423 146.566 159.614C147.297 159.807 147.943 159.683 148.503 159.242L149.058 159.938ZM149.955 161.246C149.693 161.177 149.47 161.089 149.286 160.983L149.605 160.213C149.728 160.293 149.867 160.354 150.02 160.395C150.516 160.526 150.951 160.36 151.324 159.899C151.708 159.431 152.064 158.574 152.393 157.328L152.957 155.19L157.492 156.386L155.82 162.721L154.9 162.478L156.368 156.915L153.647 156.197L153.2 157.889C152.865 159.161 152.436 160.091 151.915 160.677C151.402 161.266 150.749 161.456 149.955 161.246ZM157.427 166.62C157.148 166.546 156.88 166.447 156.623 166.321L156.939 165.507C157.137 165.636 157.353 165.732 157.588 165.794C157.885 165.872 158.15 165.84 158.38 165.699C158.617 165.568 158.858 165.332 159.102 164.991L159.967 163.8L158.927 156.765L159.956 157.036L160.698 162.951L160.725 162.958L164.098 158.129L165.1 158.393L159.842 165.534C159.494 166.012 159.131 166.346 158.753 166.535C158.384 166.728 157.942 166.756 157.427 166.62ZM163.771 164.818L167.959 162.39L165.767 158.569L167.094 158.919L169.066 162.639L169.106 162.65L169.896 159.658L170.816 159.901L170.027 162.893L170.068 162.903L173.618 160.64L174.945 160.99L171.153 163.233L173.599 167.411L172.245 167.054L170.028 163.052L169.988 163.042L169.145 166.236L168.224 165.993L169.067 162.799L169.027 162.788L165.124 165.176L163.771 164.818ZM174.941 167.765L176.612 161.43L177.532 161.673L176.197 166.736L176.21 166.739L181.296 162.665L182.297 162.93L180.626 169.265L179.719 169.026L181.069 163.909L181.042 163.902L175.942 168.029L174.941 167.765ZM183.057 169.906L184.729 163.571L187.693 164.353C188.271 164.506 188.72 164.759 189.042 165.114C189.372 165.472 189.461 165.939 189.309 166.517C189.221 166.851 189.04 167.117 188.765 167.315C188.503 167.506 188.195 167.594 187.842 167.578L187.838 167.591C188.25 167.748 188.55 168.001 188.738 168.35C188.926 168.699 188.961 169.099 188.842 169.55C188.701 170.083 188.376 170.455 187.866 170.668C187.359 170.872 186.744 170.879 186.022 170.688L183.057 169.906ZM184.185 169.364L186.121 169.875C186.563 169.991 186.947 170.001 187.272 169.903C187.606 169.808 187.82 169.58 187.916 169.219C188.104 168.506 187.728 168.026 186.79 167.778L184.746 167.239L184.185 169.364ZM184.946 166.481L186.963 167.013C187.279 167.096 187.57 167.091 187.836 166.997C188.111 166.905 188.291 166.697 188.377 166.372C188.546 165.732 188.188 165.295 187.304 165.061L185.449 164.572L184.946 166.481ZM192.031 172.447C191.462 172.297 190.994 172.005 190.626 171.57C190.27 171.129 190.176 170.587 190.345 169.947C190.428 169.631 190.555 169.37 190.725 169.164C190.898 168.949 191.113 168.793 191.37 168.697C191.627 168.6 191.894 168.54 192.17 168.517C192.449 168.484 192.779 168.494 193.161 168.547C193.546 168.59 193.897 168.649 194.215 168.723C194.545 168.791 194.931 168.883 195.373 169L195.426 168.797C195.715 167.705 195.295 167.01 194.166 166.712C193.408 166.512 192.716 166.595 192.088 166.961L191.735 166.216C192.499 165.771 193.409 165.687 194.465 165.966C195.187 166.156 195.726 166.511 196.081 167.029C196.437 167.548 196.517 168.177 196.321 168.917L195.589 171.692C195.439 172.261 195.35 172.744 195.323 173.142L194.497 172.924C194.529 172.547 194.588 172.195 194.674 171.87L194.647 171.863C193.886 172.512 193.015 172.707 192.031 172.447ZM192.475 171.754C193.097 171.918 193.643 171.845 194.111 171.534C194.588 171.225 194.904 170.778 195.059 170.191L195.184 169.717L194.913 169.646C194.48 169.532 194.087 169.447 193.734 169.393C193.393 169.332 193.04 169.301 192.673 169.301C192.315 169.303 192.016 169.374 191.777 169.514C191.537 169.653 191.38 169.867 191.303 170.156C191.194 170.571 191.257 170.916 191.494 171.191C191.733 171.457 192.059 171.644 192.475 171.754ZM197.586 173.739L199.257 167.404L200.178 167.647L199.478 170.3L203.119 171.26L203.819 168.607L204.739 168.85L203.068 175.185L202.148 174.943L202.915 172.032L199.274 171.071L198.506 173.982L197.586 173.739ZM205.504 175.828L207.176 169.493L208.096 169.736L206.761 174.798L206.774 174.802L211.859 170.728L212.861 170.993L211.19 177.328L210.283 177.089L211.633 171.972L211.606 171.965L206.506 176.092L205.504 175.828ZM213.215 177.862L215.586 175.737C215.127 175.5 214.798 175.191 214.599 174.81C214.412 174.423 214.384 173.981 214.515 173.485C214.677 172.871 215.018 172.454 215.539 172.235C216.061 172.015 216.691 172.003 217.431 172.198L220.152 172.916L218.481 179.251L217.56 179.008L218.217 176.518L216.552 176.078L214.339 178.159L213.215 177.862ZM216.678 175.272L218.425 175.733L219.028 173.445L217.282 172.984C216.262 172.715 215.651 172.964 215.449 173.731C215.249 174.489 215.659 175.003 216.678 175.272Z" fill="black"></path> <defs> <filter id="filter0_d" x="35.9995" y="16.7371" width="301" height="243" filterUnits="userSpaceOnUse" color-interpolation-filters="sRGB"> <feFlood flood-opacity="0" result="BackgroundImageFix"></feFlood> <feColorMatrix in="SourceAlpha" type="matrix" values="0 0 0 0 0 0 0 0 0 0 0 0 0 0 0 0 0 0 127 0"></feColorMatrix> <feOffset dy="4"></feOffset> <feGaussianBlur stdDeviation="20"></feGaussianBlur> <feColorMatrix type="matrix" values="0 0 0 0 0 0 0 0 0 0 0 0 0 0 0 0 0 0 0.08 0"></feColorMatrix> <feBlend mode="normal" in2="BackgroundImageFix" result="effect1_dropShadow"></feBlend> <feBlend mode="normal" in="SourceGraphic" in2="effect1_dropShadow" result="shape"></feBlend> </filter> <filter id="filter1_d" x="24.3134" y="0.000244141" width="324.372" height="276.473" filterUnits="userSpaceOnUse" color-interpolation-filters="sRGB"> <feFlood flood-opacity="0" result="BackgroundImageFix"></feFlood> <feColorMatrix in="SourceAlpha" type="matrix" values="0 0 0 0 0 0 0 0 0 0 0 0 0 0 0 0 0 0 127 0"></feColorMatrix> <feOffset dy="4"></feOffset> <feGaussianBlur stdDeviation="20"></feGaussianBlur> <feColorMatrix type="matrix" values="0 0 0 0 0 0 0 0 0 0 0 0 0 0 0 0 0 0 0.08 0"></feColorMatrix> <feBlend mode="normal" in2="BackgroundImageFix" result="effect1_dropShadow"></feBlend> <feBlend mode="normal" in="SourceGraphic" in2="effect1_dropShadow" result="shape"></feBlend> </filter> <filter id="filter2_d" x="0.285126" y="9.88989" width="367.755" height="263.863" filterUnits="userSpaceOnUse" color-interpolation-filters="sRGB"> <feFlood flood-opacity="0" result="BackgroundImageFix"></feFlood> <feColorMatrix in="SourceAlpha" type="matrix" values="0 0 0 0 0 0 0 0 0 0 0 0 0 0 0 0 0 0 127 0"></feColorMatrix> <feOffset dy="4"></feOffset> <feGaussianBlur stdDeviation="20"></feGaussianBlur> <feColorMatrix type="matrix" values="0 0 0 0 0 0 0 0 0 0 0 0 0 0 0 0 0 0 0.08 0"></feColorMatrix> <feBlend mode="normal" in2="BackgroundImageFix" result="effect1_dropShadow"></feBlend> <feBlend mode="normal" in="SourceGraphic" in2="effect1_dropShadow" result="shape"></feBlend> </filter> </defs> </svg> 