<?xml version="1.0" encoding="UTF-8"?> <svg xmlns="http://www.w3.org/2000/svg" width="15" height="15" viewBox="0 0 15 15" fill="none"> <mask id="path-1-inside-1" fill="white"> <path d="M6.67895 1.18092C7.07678 0.608721 7.92322 0.608722 8.32105 1.18092L10.4733 4.2765C10.5412 4.37411 10.6259 4.45883 10.7235 4.5267L13.8191 6.67895C14.3913 7.07678 14.3913 7.92322 13.8191 8.32105L10.7235 10.4733C10.6259 10.5412 10.5412 10.6259 10.4733 10.7235L8.32105 13.8191C7.92322 14.3913 7.07678 14.3913 6.67895 13.8191L4.5267 10.7235C4.45883 10.6259 4.37411 10.5412 4.2765 10.4733L1.18092 8.32105C0.608721 7.92322 0.608722 7.07678 1.18092 6.67895L4.2765 4.5267C4.37411 4.45883 4.45883 4.37411 4.5267 4.2765L6.67895 1.18092Z"></path> </mask> <path d="M4.2765 4.5267L3.1348 2.88459L4.2765 4.5267ZM4.5267 4.2765L2.88459 3.13479L4.5267 4.2765ZM4.5267 10.7235L2.88459 11.8652L4.5267 10.7235ZM4.2765 10.4733L5.4182 8.83119L4.2765 10.4733ZM6.67895 13.8191L5.03684 14.9608L6.67895 13.8191ZM10.4733 4.2765L8.83119 5.4182L10.4733 4.2765ZM10.7235 4.5267L11.8652 2.88459L10.7235 4.5267ZM6.67895 1.18092L5.03684 0.0392189L6.67895 1.18092ZM6.67895 2.32262L8.83119 5.4182L12.1154 3.1348L9.96316 0.0392201L6.67895 2.32262ZM9.5818 6.16881L12.6774 8.32105L14.9608 5.03684L11.8652 2.88459L9.5818 6.16881ZM12.6774 6.67895L9.5818 8.83119L11.8652 12.1154L14.9608 9.96316L12.6774 6.67895ZM8.83119 9.5818L6.67895 12.6774L9.96316 14.9608L12.1154 11.8652L8.83119 9.5818ZM8.32105 12.6774L6.16881 9.5818L2.88459 11.8652L5.03684 14.9608L8.32105 12.6774ZM5.4182 8.83119L2.32262 6.67895L0.0392189 9.96316L3.13479 12.1154L5.4182 8.83119ZM2.32262 8.32105L5.4182 6.16881L3.1348 2.88459L0.0392201 5.03684L2.32262 8.32105ZM6.16881 5.4182L8.32105 2.32262L5.03684 0.0392189L2.88459 3.13479L6.16881 5.4182ZM5.4182 6.16881C5.71103 5.96521 5.96521 5.71103 6.16881 5.4182L2.88459 3.13479C2.95246 3.03718 3.03718 2.95246 3.1348 2.88459L5.4182 6.16881ZM2.32262 6.67895C2.89482 7.07678 2.89482 7.92323 2.32262 8.32105L0.0392201 5.03684C-1.67737 6.23033 -1.67738 8.76967 0.0392189 9.96316L2.32262 6.67895ZM6.16881 9.5818C5.96521 9.28897 5.71103 9.03479 5.4182 8.83119L3.13479 12.1154C3.03718 12.0475 2.95246 11.9628 2.88459 11.8652L6.16881 9.5818ZM6.67895 12.6774C7.07678 12.1052 7.92323 12.1052 8.32105 12.6774L5.03684 14.9608C6.23033 16.6774 8.76967 16.6774 9.96316 14.9608L6.67895 12.6774ZM9.5818 8.83119C9.28897 9.03479 9.03479 9.28897 8.83119 9.5818L12.1154 11.8652C12.0475 11.9628 11.9628 12.0475 11.8652 12.1154L9.5818 8.83119ZM12.6774 8.32105C12.1052 7.92322 12.1052 7.07677 12.6774 6.67895L14.9608 9.96316C16.6774 8.76967 16.6774 6.23033 14.9608 5.03684L12.6774 8.32105ZM8.83119 5.4182C9.03479 5.71103 9.28897 5.96521 9.5818 6.16881L11.8652 2.88459C11.9628 2.95246 12.0475 3.03718 12.1154 3.1348L8.83119 5.4182ZM9.96316 0.0392201C8.76967 -1.67737 6.23033 -1.67738 5.03684 0.0392189L8.32105 2.32262C7.92322 2.89482 7.07677 2.89482 6.67895 2.32262L9.96316 0.0392201Z" fill="#DE4647" mask="url(#path-1-inside-1)"></path> </svg> 