<?xml version="1.0" encoding="UTF-8"?> <svg xmlns="http://www.w3.org/2000/svg" width="22" height="24" viewBox="0 0 22 24" fill="none"> <path d="M10.1082 1.96917C10.4785 1.23895 11.5215 1.23895 11.8918 1.96917L13.2983 4.74212C13.836 5.80244 14.9492 6.44514 16.1364 6.38071L19.241 6.21222C20.0586 6.16785 20.5801 7.0711 20.1329 7.75694L18.4346 10.3614C17.7853 11.3573 17.7853 12.6427 18.4346 13.6386L20.1329 16.2431C20.5801 16.9289 20.0586 17.8321 19.241 17.7878L16.1364 17.6193C14.9492 17.5549 13.836 18.1976 13.2983 19.2579L11.8918 22.0308C11.5215 22.7611 10.4785 22.7611 10.1082 22.0308L8.70174 19.2579C8.16396 18.1976 7.05077 17.5549 5.86363 17.6193L2.75897 17.7878C1.9414 17.8321 1.41991 16.9289 1.86712 16.2431L3.56536 13.6386C4.21473 12.6427 4.21473 11.3573 3.56536 10.3614L1.86712 7.75695C1.41991 7.0711 1.9414 6.16785 2.75897 6.21222L5.86362 6.38071C7.05077 6.44514 8.16396 5.80244 8.70174 4.74212L10.1082 1.96917Z" stroke="#53DB71" stroke-width="2"></path> </svg> 