<?xml version="1.0" encoding="UTF-8"?> <svg xmlns="http://www.w3.org/2000/svg" width="47" height="45" viewBox="0 0 47 45" fill="none"> <path d="M23.3164 1.65032L29.4544 9.70846L29.763 10.1136L30.2721 10.1023L40.3992 9.87695L37.926 19.7L37.8017 20.1938L38.128 20.5848L44.6183 28.362L35.3963 32.553L34.9327 32.7637L34.8304 33.2626L32.7966 43.1859L23.7702 38.5889L23.3164 38.3578L22.8626 38.5889L13.8362 43.1859L11.8024 33.2626L11.7001 32.7637L11.2365 32.553L2.01454 28.362L8.50483 20.5848L8.83114 20.1938L8.70679 19.7L6.23364 9.87695L16.3607 10.1023L16.8699 10.1136L17.1785 9.70846L23.3164 1.65032Z" fill="white" stroke="#DE4647" stroke-width="2"></path> </svg> 