<?xml version="1.0" encoding="UTF-8"?> <svg xmlns="http://www.w3.org/2000/svg" width="44" height="43" viewBox="0 0 44 43" fill="none"> <path d="M20.7063 1.87057C21.5057 0.785856 23.1271 0.785856 23.9265 1.87057L31.212 11.7572C31.4503 12.0805 31.7359 12.3661 32.0592 12.6044L41.9458 19.8899C43.0306 20.6893 43.0306 22.3107 41.9458 23.1101L32.0592 30.3956C31.7359 30.6339 31.4503 30.9195 31.212 31.2428L23.9265 41.1294C23.1271 42.2141 21.5057 42.2141 20.7063 41.1294L13.4208 31.2428C13.1825 30.9195 12.8969 30.6339 12.5736 30.3956L2.68697 23.1101C1.60226 22.3107 1.60226 20.6893 2.68697 19.8899L12.5736 12.6044C12.8969 12.3661 13.1825 12.0805 13.4208 11.7572L20.7063 1.87057Z" fill="white" stroke="#DE4647" stroke-width="2"></path> </svg> 