<?xml version="1.0" encoding="UTF-8"?> <svg xmlns="http://www.w3.org/2000/svg" width="734" height="1821" viewBox="0 0 734 1821" fill="none"> <path d="M85.3145 1.5L85.3144 177.546C85.3144 202.368 105.436 222.49 130.258 222.49V222.49C335.028 222.49 606.637 222.491 606.637 222.491V222.491C627.888 222.491 645.115 239.718 645.115 260.969L645.115 300.5" stroke="#DE4647" stroke-width="2"></path> <path d="M84.3145 664L84.3143 878.337C84.3143 903.043 104.344 923.07 129.051 923.067V923.067C332.88 923.039 606.593 923.005 606.593 923.005V923.005C627.874 923.002 645.127 940.255 645.124 961.536L645.114 1041.37" stroke="#DE4647" stroke-width="2"></path> <path d="M84.3145 1362L84.3144 1578.81C84.3143 1603.52 104.344 1623.54 129.05 1623.54V1623.54C332.879 1623.51 605.314 1623.48 605.314 1623.48V1623.48C626.597 1623.48 643.851 1640.73 643.851 1662.01L643.851 1760.5" stroke="#DE4647" stroke-width="2"></path> <path d="M645.115 298.5L645.115 527.377C645.115 552.321 624.893 572.541 599.949 572.539V572.539C396.222 572.518 122.831 573.004 122.831 573.004V573.004C101.56 573.002 84.3145 590.245 84.3145 611.517L84.3144 665.512" stroke="#DE4647" stroke-width="2"></path> <path d="M645.096 1026L645.095 1227.3C645.095 1252.23 624.882 1272.44 599.949 1272.44V1272.44C396.316 1272.42 122.814 1272.39 122.814 1272.39V1272.39C101.553 1272.39 84.3153 1289.62 84.3154 1310.89L84.3154 1362" stroke="#DE4647" stroke-width="2"></path> </svg> 