<?xml version="1.0" encoding="UTF-8"?> <svg xmlns="http://www.w3.org/2000/svg" width="47" height="46" viewBox="0 0 47 46" fill="none"> <path d="M29.4766 5.75593L29.7116 5.92829L30.0025 5.94735L37.6248 6.44689L39.4404 13.8667L39.5097 14.1498L39.7202 14.3514L45.2382 19.6336L41.8596 26.4845L41.7307 26.746L41.7625 27.0357L42.5941 34.629L35.6023 37.7054L35.3355 37.8228L35.1736 38.0652L30.9298 44.4166L23.5962 42.279L23.3164 42.1974L23.0366 42.279L15.703 44.4166L11.4593 38.0652L11.2973 37.8228L11.0305 37.7054L4.0387 34.629L4.87036 27.0357L4.90209 26.746L4.77317 26.4845L1.3946 19.6336L6.91257 14.3514L7.12313 14.1498L7.19241 13.8667L9.00797 6.44689L16.6303 5.94735L16.9212 5.92829L17.1562 5.75593L23.3164 1.23904L29.4766 5.75593Z" fill="white" stroke="#DE4647" stroke-width="2"></path> </svg> 