<?xml version="1.0" encoding="UTF-8"?> <svg xmlns="http://www.w3.org/2000/svg" width="24" height="23" viewBox="0 0 24 23" fill="none"> <path d="M12 1.55457L13.2798 5.91988C13.6134 7.05777 14.8581 7.65719 15.9557 7.20854L20.1666 5.48739L17.5515 9.20967C16.8699 10.1799 17.1773 11.5268 18.2125 12.1053L22.1835 14.3243L17.6429 14.6006C16.4593 14.6727 15.5979 15.7528 15.7911 16.9227L16.5321 21.411L13.485 18.0333C12.6908 17.1528 11.3092 17.1528 10.515 18.0333L7.4679 21.411L8.20891 16.9227C8.40206 15.7528 7.54068 14.6727 6.3571 14.6006L1.81646 14.3243L5.78755 12.1053C6.82267 11.5268 7.1301 10.1799 6.44845 9.20967L3.83344 5.48738L8.04429 7.20855C9.14192 7.6572 10.3866 7.05777 10.7202 5.91988L12 1.55457Z" stroke="#F3BC63" stroke-width="2"></path> </svg> 